<svg xmlns="http://www.w3.org/2000/svg" xmlns:xlink="http://www.w3.org/1999/xlink" viewBox="0 0 117.65 20.56"><defs><style>.cls-1{fill:none;}.cls-2{clip-path:url(#clip-path);}.cls-3{fill:#fff;}</style><clipPath id="clip-path" transform="translate(0 0)"><rect class="cls-1" width="117.65" height="20.56"/></clipPath></defs><g id="Layer_2" data-name="Layer 2"><g id="Layer_1-2" data-name="Layer 1"><g id="Logo_-_White" data-name="Logo - White"><g class="cls-2"><polygon class="cls-3" points="61.46 0 59.01 3.02 61.48 6.07 59.01 9.11 61.46 12.13 66.39 6.07 61.46 0"/><polygon class="cls-3" points="56.56 0 51.64 6.07 56.56 12.13 59.01 9.11 56.54 6.07 59.01 3.02 56.56 0"/><g class="cls-2"><path class="cls-3" d="M7.08,3.68A2.28,2.28,0,0,1,5.59,5.87c1.12.34,2,1,2,2.29,0,1.63-1.36,2.59-3.42,2.59H0V1.32H4c1.86,0,3.07.91,3.07,2.36M6,3.82c0-.94-.74-1.54-2.09-1.54H1.05V5.52H3.84C5.12,5.52,6,4.94,6,3.82m.52,4.27c0-1-.86-1.63-2.5-1.63h-3V9.79H4.22c1.42,0,2.31-.63,2.31-1.7" transform="translate(0 0)"/><path class="cls-3" d="M17.76,6.72c0,2.75-1.57,4.17-3.93,4.17S9.91,9.47,9.91,6.8V1.32H11V6.73c0,2,1.07,3.18,2.88,3.18S16.7,8.86,16.7,6.8V1.32h1.06Z" transform="translate(0 0)"/><path class="cls-3" d="M27.11,10.75,24.38,7.08h-2.7v3.67H20.62V1.32h4.05c2.08,0,3.41,1.12,3.41,2.81a2.75,2.75,0,0,1-2.56,2.76l2.9,3.86ZM24.59,2.3H21.68V6.13h2.9C26,6.13,27,5.4,27,4.17S26.11,2.3,24.59,2.3" transform="translate(0 0)"/><polygon class="cls-3" points="37.63 1.32 38.66 1.32 38.66 10.75 37.82 10.75 31.73 3.02 31.73 10.75 30.69 10.75 30.69 1.32 31.69 1.32 37.63 8.87 37.63 1.32"/><path class="cls-3" d="M45.05,5.52c2.1.46,3.07,1.23,3.07,2.68,0,1.63-1.35,2.68-3.22,2.68a5.52,5.52,0,0,1-3.85-1.51l.66-.78a4.47,4.47,0,0,0,3.23,1.33c1.27,0,2.1-.66,2.1-1.61s-.47-1.39-2.45-1.81C42.42,6,41.43,5.33,41.43,3.77s1.3-2.59,3.09-2.59a4.92,4.92,0,0,1,3.32,1.16l-.62.82a4.16,4.16,0,0,0-2.72-1c-1.23,0-2,.67-2,1.54s.48,1.4,2.56,1.84" transform="translate(0 0)"/><path class="cls-3" d="M73.49,5.52c2.1.46,3.07,1.23,3.07,2.68,0,1.63-1.35,2.68-3.22,2.68a5.5,5.5,0,0,1-3.85-1.51l.66-.78a4.47,4.47,0,0,0,3.23,1.33c1.27,0,2.1-.66,2.1-1.61S75,6.92,73,6.5C70.86,6,69.86,5.33,69.86,3.77S71.17,1.18,73,1.18a4.92,4.92,0,0,1,3.32,1.16l-.62.82a4.17,4.17,0,0,0-2.73-1c-1.22,0-2,.67-2,1.54s.48,1.4,2.56,1.84" transform="translate(0 0)"/><path class="cls-3" d="M83.37,10.91a4.7,4.7,0,0,1-4.72-4.86,4.74,4.74,0,0,1,4.76-4.89,4.9,4.9,0,0,1,3.68,1.49l-.73.78a4.1,4.1,0,0,0-3-1.29A3.69,3.69,0,0,0,79.75,6a3.72,3.72,0,0,0,3.65,3.9,4.06,4.06,0,0,0,3-1.36l.7.69a4.89,4.89,0,0,1-3.77,1.66" transform="translate(0 0)"/><path class="cls-3" d="M98.12,10.75H97l-1.1-2.5H90.74l-1.12,2.5H88.53l4.3-9.5h1ZM93.31,2.49,91.16,7.3h4.29Z" transform="translate(0 0)"/><polygon class="cls-3" points="100.31 1.32 101.38 1.32 101.38 9.76 106.69 9.76 106.69 10.75 100.31 10.75 100.31 1.32"/><path class="cls-3" d="M112.83,10.91A4.74,4.74,0,0,1,108,6.05a4.81,4.81,0,1,1,9.62,0,4.79,4.79,0,0,1-4.82,4.89m0-8.77A3.7,3.7,0,0,0,109.14,6a3.75,3.75,0,0,0,3.71,3.9,3.7,3.7,0,0,0,3.69-3.87,3.75,3.75,0,0,0-3.71-3.91" transform="translate(0 0)"/><path class="cls-3" d="M30.7,20.5l-1.17-1.58H28.37V20.5h-.45V16.45h1.74c.89,0,1.46.48,1.46,1.21A1.17,1.17,0,0,1,30,18.84l1.24,1.66Zm-1.08-3.63H28.37v1.64h1.25c.6,0,1-.31,1-.83s-.39-.81-1-.81" transform="translate(0 0)"/><polygon class="cls-3" points="37.04 16.87 34.57 16.87 34.57 18.25 36.78 18.25 36.78 18.66 34.57 18.66 34.57 20.08 37.07 20.08 37.07 20.5 34.12 20.5 34.12 16.45 37.04 16.45 37.04 16.87"/><path class="cls-3" d="M43.78,20.5h-.49l-.48-1.07h-2.2l-.48,1.07h-.47l1.85-4.08h.43ZM41.72,17,40.79,19h1.85Z" transform="translate(0 0)"/><polygon class="cls-3" points="46.6 16.45 47.05 16.45 47.05 20.07 49.33 20.07 49.33 20.5 46.6 20.5 46.6 16.45"/><polygon class="cls-3" points="58.88 16.87 56.41 16.87 56.41 18.25 58.62 18.25 58.62 18.66 56.41 18.66 56.41 20.08 58.91 20.08 58.91 20.5 55.95 20.5 55.95 16.45 58.88 16.45 58.88 16.87"/><path class="cls-3" d="M63.3,18.25c.9.2,1.32.53,1.32,1.15s-.58,1.15-1.38,1.15a2.39,2.39,0,0,1-1.66-.64l.29-.34a1.91,1.91,0,0,0,1.38.57c.55,0,.9-.28.9-.69s-.2-.59-1.05-.77-1.36-.51-1.36-1.18a1.2,1.2,0,0,1,1.33-1.11,2.15,2.15,0,0,1,1.43.5l-.27.35a1.82,1.82,0,0,0-1.17-.44c-.52,0-.86.29-.86.66s.21.6,1.1.79" transform="translate(0 0)"/><polygon class="cls-3" points="69.01 20.5 68.55 20.5 68.55 16.87 67.19 16.87 67.19 16.45 70.37 16.45 70.37 16.87 69.01 16.87 69.01 20.5"/><path class="cls-3" d="M76.5,20.5H76l-.48-1.07h-2.2l-.48,1.07h-.47l1.85-4.08h.42ZM74.43,17,73.51,19h1.84Z" transform="translate(0 0)"/><polygon class="cls-3" points="80.33 20.5 79.87 20.5 79.87 16.87 78.51 16.87 78.51 16.45 81.69 16.45 81.69 16.87 80.33 16.87 80.33 20.5"/><polygon class="cls-3" points="87.49 16.87 85.02 16.87 85.02 18.25 87.23 18.25 87.23 18.66 85.02 18.66 85.02 20.08 87.52 20.08 87.52 20.5 84.56 20.5 84.56 16.45 87.49 16.45 87.49 16.87"/></g></g></g></g></g></svg>